<?xml version="1.0" encoding="UTF-8"?>
<svg version="1.1" xmlns="http://www.w3.org/2000/svg" width="512" height="512">
<path d="M0 0 C1.13474831 -0.00538554 2.26949662 -0.01077108 3.43863124 -0.01631981 C7.21373199 -0.0305451 10.98847941 -0.02350886 14.76359558 -0.01637268 C17.48139344 -0.02043832 20.19917365 -0.02894463 22.91696167 -0.03717041 C29.51691057 -0.05431087 36.11676407 -0.05520825 42.71672944 -0.04995751 C48.08534984 -0.04590526 53.45394219 -0.04737185 58.82256126 -0.05270576 C59.97158814 -0.0538284 59.97158814 -0.0538284 61.14382767 -0.05497371 C62.70033657 -0.0565053 64.25684545 -0.05804364 65.81335434 -0.05958868 C80.38960326 -0.07329682 94.96579841 -0.06788817 109.54204609 -0.05640347 C122.85298687 -0.04647546 136.16378855 -0.05940724 149.47470788 -0.08333766 C163.16862844 -0.1077696 176.86248433 -0.11732632 190.55642623 -0.11068493 C198.23398648 -0.10720146 205.91143986 -0.10936677 213.58898354 -0.12693596 C220.12547781 -0.14170941 226.66178995 -0.14222679 233.19828085 -0.12486505 C236.52779319 -0.11639398 239.85671611 -0.11630494 243.18625259 -0.1295166 C265.85382392 -0.2125622 283.93786678 2.31234376 301.217453 18.38768005 C313.11835604 30.54262536 319.5585285 45.53596264 319.47814941 62.51348877 C319.48197496 63.38659201 319.48580051 64.25969525 319.48974198 65.15925616 C319.49999251 68.06073687 319.49609502 70.96201675 319.49211121 73.86351013 C319.49646211 75.95371685 319.50164652 78.04392198 319.50759888 80.13412476 C319.52096014 85.79539206 319.52157068 91.45659248 319.51903558 97.11787248 C319.5179638 101.85174871 319.52285458 106.58561153 319.527641 111.31948489 C319.5387265 122.49237336 319.53917913 133.6652282 319.53312683 144.83811951 C319.5270887 156.34598254 319.53939624 167.85372325 319.5606969 179.36156541 C319.57833857 189.25825108 319.58431016 199.15489792 319.58105916 209.05159873 C319.57925007 214.95512608 319.58184496 220.85856619 319.5957737 226.76207924 C319.60838895 232.31649022 319.60637294 237.87071119 319.59336281 243.4251194 C319.59100544 245.45674708 319.59370141 247.4883883 319.60198593 249.52000046 C319.68312868 270.97565302 315.62268684 287.81275971 300.05729675 303.57518005 C292.61247362 310.5079254 284.86962508 315.10048497 275.217453 318.20018005 C274.57735291 318.40731628 273.93725281 318.61445251 273.27775574 318.8278656 C263.327893 321.80642297 253.07049534 321.50832675 242.77848816 321.41844177 C241.34822931 321.4099968 239.91796673 321.40216612 238.48770142 321.39489746 C236.21163284 321.38319195 233.93557463 321.37101826 231.65951943 321.35692859 C226.02242644 321.32214404 220.38550095 321.30617879 214.74830627 321.30128479 C213.51532096 321.30018575 213.51532096 321.30018575 212.25742686 321.29906452 C208.8724331 321.29640322 205.48743923 321.29435663 202.10244489 321.29258895 C192.52745717 321.28680808 182.95328601 321.26296197 173.37858582 321.18553162 C165.74801913 321.12394817 158.11845259 321.10153107 150.487656 321.12434399 C146.45904919 321.13493692 142.43263464 321.12633573 138.40436172 321.07001877 C134.612749 321.01744264 130.82457455 321.01723932 127.03282356 321.0553875 C124.99775495 321.06267733 122.96271136 321.01582905 120.92822266 320.96670532 C112.39308082 321.11888875 108.0364869 323.19241189 102.22955954 329.13559806 C101.78257189 329.61104344 101.33558423 330.08648882 100.8750515 330.57634163 C98.27210299 333.32986861 95.55970662 335.663141 92.592453 338.01268005 C89.03561165 340.87649788 85.59206248 343.81114334 82.217453 346.88768005 C77.9175351 350.80659258 73.45825754 354.47938875 68.936203 358.13768005 C66.29597571 360.32269575 63.7501558 362.57939396 61.217453 364.88768005 C56.91538433 368.80855277 52.4546547 372.48380697 47.9283905 376.1415863 C45.3245368 378.29895788 42.82972468 380.53511924 40.342453 382.82518005 C36.45311365 386.36491587 32.43565061 389.67004882 28.279953 392.88768005 C27.72388367 393.32136902 27.16781433 393.75505798 26.59489441 394.20188904 C21.58134997 398.03392201 17.48667109 399.03128799 11.217453 398.38768005 C5.54238075 396.38471338 1.91070211 392.77417827 -0.782547 387.38768005 C-0.87422488 385.29412986 -0.90005633 383.19758828 -0.89607239 381.10203552 C-0.89621841 380.45800781 -0.89636444 379.8139801 -0.89651489 379.1504364 C-0.8958174 377.01854603 -0.88803266 374.88674269 -0.88020325 372.75486755 C-0.87833849 371.27799019 -0.87691486 369.80111221 -0.87591553 368.32423401 C-0.87209492 364.43455807 -0.86226851 360.54491939 -0.85121155 356.65525818 C-0.84098763 352.68716435 -0.8364158 348.71906451 -0.83137512 344.7509613 C-0.82064585 336.96318389 -0.80357489 329.17543719 -0.782547 321.38768005 C-1.85416077 321.26723328 -2.92577454 321.1467865 -4.02986145 321.02268982 C-5.46438717 320.85430173 -6.89887408 320.68558286 -8.33332825 320.5165863 C-9.03622986 320.43847717 -9.73913147 320.36036804 -10.46333313 320.27989197 C-25.98805397 318.42265382 -40.83680386 310.62118493 -50.782547 298.38768005 C-59.97732172 286.50739086 -64.93909132 273.80000301 -64.92298889 258.73616028 C-64.92596001 257.86576917 -64.92893114 256.99537807 -64.93199229 256.09861147 C-64.94066291 253.18242536 -64.94218617 250.26628038 -64.94367981 247.3500824 C-64.9483092 245.25884412 -64.95333402 243.16760669 -64.95872498 241.07637024 C-64.97184065 235.39429108 -64.97829249 229.71222374 -64.98273563 224.03013182 C-64.98566812 220.47830897 -64.9897733 216.92648934 -64.99423981 213.37466812 C-65.00791348 202.25651387 -65.01758038 191.13836698 -65.0214417 180.0202049 C-65.02592016 167.19620362 -65.04345882 154.37230904 -65.07244229 141.5483402 C-65.09407934 131.629676 -65.10414709 121.71104177 -65.10548282 111.79235423 C-65.10652953 105.87146503 -65.11240878 99.95067616 -65.13030243 94.02981186 C-65.14681768 88.45659023 -65.14892178 82.88354397 -65.14016342 77.31030655 C-65.13939486 75.27019531 -65.14371179 73.2300745 -65.15362167 71.18998718 C-65.2465285 50.8638402 -61.34285964 33.5845091 -46.782547 18.38768005 C-33.86081784 6.00717515 -17.73363932 -0.10247161 0 0 Z M6.467453 140.20018005 C0.26239407 148.99068021 -0.89967504 156.60797028 0.217453 167.38768005 C2.13071872 175.81057764 6.74465437 182.52832828 14.0221405 187.1806488 C22.71737455 191.83801971 30.01219022 193.51104953 39.670578 191.23143005 C49.29627099 188.04255017 55.20001964 182.10253297 60.311203 173.55955505 C63.77892532 166.17459086 63.53394559 156.67126769 61.186203 149.0322113 C57.0404751 139.94615766 51.02100939 133.63512654 41.717453 129.88768005 C27.90757059 125.56608959 16.3048451 130.13921086 6.467453 140.20018005 Z M102.217453 140.38768005 C96.24520801 148.26921053 94.79294854 155.01555386 95.67448425 164.8368988 C97.16726003 174.59900804 101.12284741 181.23755898 109.029953 187.07518005 C117.42090437 192.67321301 124.39637018 192.98754729 134.217453 191.38768005 C144.76757337 188.56358403 150.64662291 183.03600337 156.0533905 173.75486755 C159.66382953 166.41283383 159.59165865 156.66734908 157.123703 148.98143005 C152.8169668 139.90979422 147.66498075 133.92752265 138.33073425 130.11424255 C124.92667948 125.50582446 111.58857331 129.86419461 102.217453 140.38768005 Z M198.467453 140.20018005 C192.26239407 148.99068021 191.10032496 156.60797028 192.217453 167.38768005 C194.13071872 175.81057764 198.74465437 182.52832828 206.0221405 187.1806488 C214.71737455 191.83801971 222.01219022 193.51104953 231.670578 191.23143005 C241.29627099 188.04255017 247.20001964 182.10253297 252.311203 173.55955505 C255.77892532 166.17459086 255.53394559 156.67126769 253.186203 149.0322113 C249.0404751 139.94615766 243.02100939 133.63512654 233.717453 129.88768005 C219.90757059 125.56608959 208.3048451 130.13921086 198.467453 140.20018005 Z " fill="#3EB798" transform="translate(64.78254699707031,0.6123199462890625)"/>
<path d="M0 0 C5.70673719 -0.10013847 11.41294423 -0.1720575 17.12036133 -0.21972656 C19.05502246 -0.23963346 20.98962512 -0.26676909 22.92407227 -0.30175781 C44.92624929 -0.68926054 62.57697848 3.18523854 79 19 C91.9717229 33.5855278 96.31244525 48.523342 96.2746582 67.61669922 C96.27901268 69.07799539 96.28419827 70.53928928 96.29014587 72.00057983 C96.30346822 75.94696661 96.30412211 79.89325722 96.30158257 83.83966208 C96.30050822 87.14457113 96.30540807 90.4494611 96.310188 93.75436604 C96.32125986 101.55679909 96.32173373 109.359184 96.31567383 117.16162109 C96.30963588 125.1874565 96.32194581 133.21311651 96.3432439 141.238922 C96.36090697 148.15133139 96.36685385 155.06368519 96.36360615 161.9761163 C96.36180059 166.09501555 96.36435631 170.21378967 96.37832069 174.3326683 C96.39097131 178.20861719 96.38888728 182.0842943 96.37590981 185.96023941 C96.3735601 187.37467799 96.37622044 188.78913614 96.38453293 190.20355225 C96.48244143 208.17257725 90.92247921 224.83704062 78.34301758 237.96875 C67.4515692 248.68761281 54.58881509 254.47126303 39.546875 256.1328125 C38.45125244 256.26151733 38.45125244 256.26151733 37.33349609 256.39282227 C35.55630774 256.60079112 33.77823725 256.80119918 32 257 C32.01110306 257.6233876 32.02220612 258.24677521 32.03364563 258.88905334 C32.14451149 265.39423249 32.21978028 271.89914202 32.2746582 278.4050293 C32.29975755 280.83092149 32.33384438 283.2567384 32.37719727 285.68237305 C32.43804716 289.17515672 32.46625671 292.66693808 32.48828125 296.16015625 C32.51408768 297.23959 32.5398941 298.31902374 32.56648254 299.4311676 C32.56903539 306.32966131 31.69853954 309.86740118 27 315 C22.69634843 318.10263253 18.80068436 318.37071502 13.66015625 318.49609375 C7.07734656 317.26846257 2.10711213 312.63354059 -2.75 308.3125 C-3.98220077 307.23598007 -5.21528266 306.16046791 -6.44921875 305.0859375 C-7.35293213 304.29654785 -7.35293213 304.29654785 -8.27490234 303.49121094 C-10.66532984 301.4248748 -13.10865404 299.42788164 -15.5625 297.4375 C-19.58358091 294.17221697 -23.55345162 290.85442156 -27.5 287.5 C-32.34179078 283.3855077 -37.23564411 279.34269431 -42.1640625 275.33203125 C-45.97670669 272.19684037 -49.74073564 269.00586241 -53.49804688 265.8046875 C-54.99457994 264.53160166 -56.49716979 263.26564613 -58 262 C-58.69118423 261.29944489 -59.38236847 260.59888977 -60.09449768 259.87710571 C-64.21373856 257.21586172 -67.6255498 257.44148034 -72.43334961 257.48583984 C-73.37719513 257.47871475 -74.32104065 257.47158966 -75.29348755 257.46424866 C-78.41331888 257.44495674 -81.53247241 257.45325409 -84.65234375 257.4609375 C-86.83127324 257.45102596 -89.01019436 257.43908298 -91.18910217 257.42520142 C-96.93274478 257.39280399 -102.67619691 257.38244677 -108.41992188 257.37835693 C-117.58017394 257.36961502 -126.74026878 257.3337491 -135.90039253 257.2861824 C-139.08298372 257.27370933 -142.26537239 257.27434665 -145.44798279 257.27645874 C-169.00858237 257.22939432 -189.01424332 254.17305073 -206.875 237.625 C-218.50865235 225.12746257 -224.38989694 209.56936857 -224.1953125 192.71484375 C-224.1924826 191.77314835 -224.18965271 190.83145294 -224.18673706 189.86122131 C-224.17564207 186.88651209 -224.15055802 183.91211649 -224.125 180.9375 C-224.11495637 178.90690542 -224.10583296 176.87630608 -224.09765625 174.84570312 C-224.07573784 169.89701664 -224.041283 164.94856129 -224 160 C-223.26230377 159.99668985 -222.52460754 159.99337971 -221.76455688 159.98996925 C-203.74993419 159.90847218 -185.73539447 159.81629425 -167.72088623 159.71247292 C-159.00892868 159.66251718 -150.29697975 159.6160735 -141.58496094 159.578125 C-133.98466693 159.54500988 -126.38444332 159.50507363 -118.78422737 159.45720994 C-114.76625042 159.43213726 -110.748319 159.41030122 -106.73028564 159.39665604 C-102.93488636 159.38365855 -99.13964481 159.36142164 -95.34433365 159.33261681 C-93.31494471 159.31947079 -91.28550174 159.31565409 -89.256073 159.31230164 C-63.67357768 159.08391409 -41.41788123 152.76334776 -22.6484375 134.7421875 C-3.177095 113.76726643 -0.9519811 88.58200766 -0.68359375 61.328125 C-0.66297661 59.55165171 -0.64197907 57.7751828 -0.62062073 55.99871826 C-0.56589076 51.36287014 -0.51626881 46.72698143 -0.46777344 42.09106445 C-0.41719592 37.34452783 -0.36170068 32.59804886 -0.30664062 27.8515625 C-0.199661 18.56775779 -0.09808694 9.28390264 0 0 Z " fill="#3DB697" transform="translate(416,193)"/>
</svg>
